<svg xmlns="http://www.w3.org/2000/svg" width="14.239" height="14.187" viewBox="0 0 14.239 14.187">
  <g id="Sign_Out" transform="translate(0.4 0.4)">
    <path id="Path_686" data-name="Path 686" d="M6.275,12.551H.837V.838H6.275a.418.418,0,0,0,0-.837H.418A.418.418,0,0,0,0,.419V12.97a.418.418,0,0,0,.418.418H6.275a.418.418,0,0,0,0-.837Z" transform="translate(0 -0.001)" fill="none" stroke="#141414" stroke-width="0.8"/>
    <path id="Path_687" data-name="Path 687" d="M94.585,99.38,91.7,96.452a.415.415,0,0,0-.592,0,.425.425,0,0,0,0,.6l2.175,2.207H84.667a.423.423,0,0,0,0,.845h8.615l-2.175,2.207a.425.425,0,0,0,0,.6.415.415,0,0,0,.592,0l2.886-2.928A.428.428,0,0,0,94.585,99.38Z" transform="translate(-81.319 -92.979)" fill="none" stroke="#141414" stroke-width="0.8"/>
  </g>
</svg>
