<svg xmlns="http://www.w3.org/2000/svg" width="15.178" height="15.178" viewBox="0 0 15.178 15.178">
  <g id="Icon_feather-settings" data-name="Icon feather-settings" transform="translate(-1 -1)">
    <path id="Path_854" data-name="Path 854" d="M17.367,15.433A1.933,1.933,0,1,1,15.433,13.5,1.933,1.933,0,0,1,17.367,15.433Z" transform="translate(-6.844 -6.844)" fill="none" stroke="#141414" stroke-linecap="round" stroke-linejoin="round" stroke-width="1"/>
    <path id="Path_855" data-name="Path 855" d="M13.358,10.523a1.063,1.063,0,0,0,.213,1.173l.039.039a1.29,1.29,0,1,1-1.824,1.824l-.039-.039a1.072,1.072,0,0,0-1.817.76v.11a1.289,1.289,0,1,1-2.578,0v-.058a1.116,1.116,0,0,0-1.869-.76l-.039.039A1.29,1.29,0,1,1,3.62,11.786l.039-.039A1.072,1.072,0,0,0,2.9,9.93h-.11a1.289,1.289,0,1,1,0-2.578h.058a1.116,1.116,0,0,0,.76-1.869l-.039-.039A1.29,1.29,0,1,1,5.393,3.62l.039.039A1.063,1.063,0,0,0,6.6,3.872h.052A1.063,1.063,0,0,0,7.3,2.9v-.11a1.289,1.289,0,1,1,2.578,0v.058a1.072,1.072,0,0,0,1.817.76l.039-.039a1.29,1.29,0,1,1,1.824,1.824l-.039.039A1.063,1.063,0,0,0,13.307,6.6v.052a1.063,1.063,0,0,0,.973.644h.11a1.289,1.289,0,1,1,0,2.578h-.058a1.063,1.063,0,0,0-.973.644Z" fill="none" stroke="#141414" stroke-linecap="round" stroke-linejoin="round" stroke-width="1"/>
  </g>
</svg>
